# xmcd CD database file
# Copyright (C) 1996 Ti Kan
#
# Track frame offsets:
#  217
#  15710
#  27910
#  42722
#  65767
#  85487
#  99377
#  120137
#  133365
#  152362
#  165190
#  178192
#  196395
#  211155
#  229205
#  240887
#  255935
#
# Disc length: 3601 seconds
#
# Revision: 2
# Processed by: cddbd v1.4PL0 Copyright (c) Steve Scherf et al.
# Submitted via: Gronk 1.4
#
DISCID=d70e0f11
DTITLE=Brownie McGhee - The Folkways Years, 1945 - 1959
DYEAR=1900
DGENRE=blues
TTITLE0=Daisy
TTITLE1=Rising Sun
TTITLE2=Careless Love
TTITLE3=Cholly Blues
TTITLE4=Just A Dream
TTITLE5=Pawn Shop Blues
TTITLE6=Hangman's Blues
TTITLE7=Living With The Blues
TTITLE8='Fore Day Creep
TTITLE9=Me And Sonny
TTITLE10=Raise A Ruckus Tonight
TTITLE11=Betty And Dupree
TTITLE12=Long Gone
TTITLE13=Grievin' Hearted Blues
TTITLE14=I'm Gonna Tell God How You Treat Me
TTITLE15=Can't Help Myself
TTITLE16=Pallet On The Floor
EXTD=CD SF 40034\n\nSubmitted 6/3/97\n[Jmccoy@efn.org]
EXTT0=
EXTT1=
EXTT2=
EXTT3=
EXTT4=
EXTT5=
EXTT6=
EXTT7=
EXTT8=
EXTT9=
EXTT10=
EXTT11=
EXTT12=
EXTT13=
EXTT14=
EXTT15=
EXTT16=
PLAYORDER=
